<svg width="500" height="500" viewBox="0 0 500 500" fill="none" xmlns="http://www.w3.org/2000/svg">
<g clip-path="url(#clip0_288_4)">
<path d="M320.6 383.3H159.5C153.2 383.3 147.3 386.8 144.3 392.3L106 461.6C103 467.1 105 474 110.5 477C112.2 477.9 114.1 478.4 116 478.4H321.7C346.9 478.4 367.7 458.8 369.2 433.6C370.7 406.1 348.4 383.3 320.6 383.3Z" fill="#294F94"/>
<path d="M273 28.6999C250.6 14.8999 221.1 21.5999 207.3 43.9999C207.3 44.1999 207.1 44.4 206.9 44.4L7.2001 405.7C-6.6999 428.1 0.200104 457.5 22.5001 471.4C30.0001 476.1 38.8001 478.5 47.6001 478.4C64.2001 478.5 79.6001 469.9 88.1001 455.6L287.9 94.2999C301.9 72.0999 295.2 42.6999 273 28.6999Z" fill="#294F94"/>
<path d="M493.1 406.1L408.6 253.6C394.6 231.5 365.2 224.5 343.1 238.5C321 252.1 314 281 327.2 303.3L411.7 455.8C420.2 469.9 435.5 478.5 452 478.5C474.1 478.6 493.4 463.4 498.7 441.9C501.6 429.3 499.7 416.7 493.1 406.1ZM315.8 137C289.7 137 268.6 158.1 268.6 184.2C268.6 210.3 289.7 231.4 315.8 231.4C341.9 231.4 363 210.3 363 184.2C363.4 158.2 342.2 137 315.8 137Z" fill="#294F94"/>
</g>
<defs>
<clipPath id="clip0_288_4">
<rect width="500" height="500" fill="white"/>
</clipPath>
</defs>
</svg>
